<?xml version="1.0" standalone="no"?>
<!DOCTYPE svg PUBLIC "-//W3C//DTD SVG 20010904//EN"
 "http://www.w3.org/TR/2001/REC-SVG-20010904/DTD/svg10.dtd">
<svg version="1.0" xmlns="http://www.w3.org/2000/svg"
 width="600.000000pt" height="600.000000pt" viewBox="0 0 600.000000 600.000000"
 preserveAspectRatio="xMidYMid meet">
<metadata>
Created by potrace 1.11, written by Peter Selinger 2001-2013
</metadata>
<g transform="translate(0.000000,600.000000) scale(0.100000,-0.100000)"
fill="#000000" stroke="none">
<path d="M0 3000 l0 -3000 3000 0 3000 0 0 3000 0 3000 -3000 0 -3000 0 0
-3000z m4253 2485 c237 -50 385 -251 443 -600 32 -200 5 -628 -56 -880 -16
-68 -16 -69 63 -94 592 -189 987 -472 1079 -775 27 -88 22 -223 -11 -305 -92
-228 -342 -442 -720 -615 -100 -46 -275 -113 -376 -144 -37 -11 -37 -12 -2
-192 34 -180 47 -312 47 -490 0 -294 -48 -496 -156 -661 -97 -148 -214 -214
-399 -225 -292 -19 -696 183 -1089 543 l-69 63 -51 -45 c-257 -229 -493 -386
-712 -474 -128 -52 -195 -69 -319 -83 -181 -20 -320 25 -435 141 -121 122
-187 300 -210 565 -17 200 6 473 59 713 12 51 21 99 21 108 0 9 -27 23 -78 38
-370 116 -711 309 -900 512 -127 136 -182 250 -190 396 -8 150 47 281 175 419
193 207 463 362 866 495 70 23 130 44 132 46 2 2 -5 40 -15 84 -57 246 -80
478 -69 705 15 304 75 484 208 619 273 278 790 144 1379 -357 l133 -113 67 63
c175 164 406 328 592 420 241 120 428 158 593 123z"/>
<path d="M4048 5250 c-123 -22 -315 -110 -478 -217 -111 -74 -300 -224 -362
-290 l-38 -38 61 -70 c114 -131 226 -270 318 -395 l92 -124 182 -23 c100 -13
256 -37 347 -54 91 -18 178 -33 194 -33 35 -1 34 -4 72 208 25 137 28 174 28
396 1 225 -1 252 -22 330 -42 157 -110 264 -189 297 -44 18 -144 24 -205 13z"/>
<path d="M1725 5226 c-124 -57 -190 -218 -204 -500 -8 -150 3 -340 29 -481 25
-140 52 -245 63 -245 7 0 40 7 73 15 98 23 346 63 512 82 l152 18 94 125 c102
136 226 288 323 397 l62 70 -37 35 c-122 116 -338 275 -489 361 -231 132 -457
180 -578 123z"/>
<path d="M2887 4408 c-58 -68 -131 -156 -162 -195 l-56 -73 325 0 c179 0 326
2 326 5 0 14 -303 377 -320 383 -4 2 -55 -52 -113 -120z"/>
<path d="M2580 3891 l-95 -6 -63 -95 c-110 -166 -252 -409 -353 -605 l-98
-190 80 -154 c130 -248 256 -462 409 -693 l24 -36 101 -8 c125 -9 743 -7 849
4 l79 7 70 110 c112 174 263 436 354 613 l85 162 -80 153 c-121 233 -367 646
-427 715 l-21 25 -410 2 c-225 2 -452 0 -504 -4z m591 -420 c240 -92 377 -362
305 -603 -76 -258 -345 -416 -596 -350 -370 97 -508 539 -256 819 137 152 357
206 547 134z"/>
<path d="M2035 3834 c-165 -25 -365 -66 -365 -75 0 -12 92 -272 135 -381 l39
-97 86 157 c48 86 120 211 160 277 40 66 75 123 77 128 6 10 -25 8 -132 -9z"/>
<path d="M3832 3828 c51 -80 189 -315 246 -422 l69 -126 16 38 c52 120 157
412 157 437 0 12 -194 53 -375 80 -133 20 -131 20 -113 -7z"/>
<path d="M1285 3660 c-343 -118 -549 -233 -710 -394 -113 -113 -140 -164 -140
-261 0 -56 5 -81 28 -126 70 -143 302 -329 552 -444 174 -80 404 -161 416
-147 3 4 25 65 49 137 42 128 140 378 198 506 l30 66 -55 124 c-56 128 -168
421 -199 522 -21 69 -20 69 -169 17z"/>
<path d="M4557 3693 c-2 -5 -17 -46 -32 -93 -41 -128 -99 -277 -172 -448 l-66
-154 18 -36 c67 -137 170 -391 235 -578 l32 -92 56 18 c530 165 932 462 932
689 0 230 -368 504 -910 677 -84 26 -87 27 -93 17z"/>
<path d="M4095 2622 c-28 -53 -101 -181 -163 -285 -62 -105 -111 -191 -110
-193 7 -6 443 65 500 82 15 4 14 13 -11 87 -38 110 -151 396 -159 401 -4 2
-30 -39 -57 -92z"/>
<path d="M1791 2580 c-71 -180 -127 -347 -119 -355 14 -14 417 -84 485 -85 19
0 11 17 -66 143 -48 78 -123 206 -166 285 -42 78 -79 142 -80 142 -1 0 -26
-59 -54 -130z"/>
<path d="M4330 1984 c-101 -24 -345 -64 -516 -83 -163 -19 -170 -21 -189 -47
-141 -193 -270 -360 -349 -452 -54 -62 -96 -116 -94 -120 2 -5 32 -36 68 -68
227 -209 502 -382 710 -445 110 -34 237 -33 305 2 90 46 155 158 192 330 28
129 25 488 -5 664 -27 158 -45 228 -57 231 -6 1 -35 -4 -65 -12z"/>
<path d="M1596 1971 c-31 -104 -71 -362 -81 -521 -8 -125 8 -316 36 -418 74
-276 226 -346 533 -245 171 56 404 195 590 354 160 135 162 137 151 152 -5 8
-59 72 -120 142 -91 105 -274 336 -335 422 -13 19 -36 23 -205 42 -178 20
-322 41 -492 75 -66 12 -73 12 -77 -3z"/>
<path d="M2678 1846 c50 -66 176 -220 243 -295 l83 -94 44 49 c49 54 225 271
259 320 l23 32 -330 0 c-241 -1 -328 -4 -322 -12z"/>
</g>
</svg>
